<?xml version="1.0" encoding="UTF-8" standalone="no"?>
<!-- Created with Inkscape (http://www.inkscape.org/) -->

<svg
   xmlns:dc="http://purl.org/dc/elements/1.1/"
   xmlns:cc="http://creativecommons.org/ns#"
   xmlns:rdf="http://www.w3.org/1999/02/22-rdf-syntax-ns#"
   xmlns:svg="http://www.w3.org/2000/svg"
   xmlns="http://www.w3.org/2000/svg"
   xmlns:sodipodi="http://sodipodi.sourceforge.net/DTD/sodipodi-0.dtd"
   xmlns:inkscape="http://www.inkscape.org/namespaces/inkscape"
   width="744.09448819"
   height="1052.3622047"
   id="svg3009"
   version="1.1"
   inkscape:version="0.48.3.1 r9886"
   sodipodi:docname="metamesh_logotext_experiment.svg">
  <defs
     id="defs3011" />
  <sodipodi:namedview
     id="base"
     pagecolor="#ffffff"
     bordercolor="#666666"
     borderopacity="1.0"
     inkscape:pageopacity="0.0"
     inkscape:pageshadow="2"
     inkscape:zoom="0.49497475"
     inkscape:cx="256.68959"
     inkscape:cy="738.26719"
     inkscape:document-units="px"
     inkscape:current-layer="layer1"
     showgrid="false"
     inkscape:window-width="1855"
     inkscape:window-height="1056"
     inkscape:window-x="65"
     inkscape:window-y="24"
     inkscape:window-maximized="1" />
  <metadata
     id="metadata3014">
    <rdf:RDF>
      <cc:Work
         rdf:about="">
        <dc:format>image/svg+xml</dc:format>
        <dc:type
           rdf:resource="http://purl.org/dc/dcmitype/StillImage" />
        <dc:title />
      </cc:Work>
    </rdf:RDF>
  </metadata>
  <g
     inkscape:label="Layer 1"
     inkscape:groupmode="layer"
     id="layer1">
    <g
       transform="matrix(0.11943471,0,0,0.11943471,310.89289,-2.9332485)"
       id="layer1-9"
       inkscape:label="Layer 1">
      <path
         inkscape:transform-center-y="51.557518"
         transform="matrix(0.86860081,0,0,0.86860081,159.24976,247.15981)"
         d="M 266.00001,240.66709 163.19071,62.59617 60.381415,-115.47474 l 205.618585,0 205.61858,-1e-5 -102.80929,178.070925 z"
         inkscape:randomized="0"
         inkscape:rounded="0"
         inkscape:flatsided="false"
         sodipodi:arg2="2.6179939"
         sodipodi:arg1="1.5707963"
         sodipodi:r2="118.71394"
         sodipodi:r1="237.42789"
         sodipodi:cy="3.2392006"
         sodipodi:cx="266"
         sodipodi:sides="3"
         id="path3075"
         style="fill:#f5ca00;fill-opacity:1;fill-rule:nonzero;stroke:#000000;stroke-width:57.56384277;stroke-linecap:butt;stroke-linejoin:miter;stroke-miterlimit:4;stroke-opacity:1;stroke-dasharray:none;stroke-dashoffset:0"
         sodipodi:type="star" />
      <path
         inkscape:transform-center-y="51.557518"
         transform="matrix(0.86860081,0,0,0.86860081,-99.23312,652.70064)"
         d="M 266.00001,240.66709 163.19071,62.59617 60.381415,-115.47474 l 205.618585,0 205.61858,-1e-5 -102.80929,178.070925 z"
         inkscape:randomized="0"
         inkscape:rounded="0"
         inkscape:flatsided="false"
         sodipodi:arg2="2.6179939"
         sodipodi:arg1="1.5707963"
         sodipodi:r2="118.71394"
         sodipodi:r1="237.42789"
         sodipodi:cy="3.2392006"
         sodipodi:cx="266"
         sodipodi:sides="3"
         id="path3075-2"
         style="fill:#f5ca00;fill-opacity:1;fill-rule:nonzero;stroke:#000000;stroke-width:57.56384277;stroke-linecap:butt;stroke-linejoin:miter;stroke-miterlimit:4;stroke-opacity:1;stroke-dasharray:none;stroke-dashoffset:0"
         sodipodi:type="star" />
      <path
         inkscape:transform-center-y="51.557518"
         transform="matrix(0.86860081,0,0,0.86860081,419.76688,652.70064)"
         d="M 266.00001,240.66709 163.19071,62.59617 60.381415,-115.47474 l 205.618585,0 205.61858,-1e-5 -102.80929,178.070925 z"
         inkscape:randomized="0"
         inkscape:rounded="0"
         inkscape:flatsided="false"
         sodipodi:arg2="2.6179939"
         sodipodi:arg1="1.5707963"
         sodipodi:r2="118.71394"
         sodipodi:r1="237.42789"
         sodipodi:cy="3.2392006"
         sodipodi:cx="266"
         sodipodi:sides="3"
         id="path3075-2-7"
         style="fill:#f5ca00;fill-opacity:1;fill-rule:nonzero;stroke:#000000;stroke-width:57.56384277;stroke-linecap:butt;stroke-linejoin:miter;stroke-miterlimit:4;stroke-opacity:1;stroke-dasharray:none;stroke-dashoffset:0"
         sodipodi:type="star" />
      <path
         inkscape:transform-center-x="-1.3837462e-05"
         inkscape:transform-center-y="-51.55751"
         transform="matrix(0.43430041,-0.75223037,0.75223037,0.43430041,532.85416,576.31573)"
         d="M 266.00001,240.66709 163.19071,62.59617 60.381415,-115.47474 l 205.618585,0 205.61858,-1e-5 -102.80929,178.070925 z"
         inkscape:randomized="0"
         inkscape:rounded="0"
         inkscape:flatsided="false"
         sodipodi:arg2="2.6179939"
         sodipodi:arg1="1.5707963"
         sodipodi:r2="118.71394"
         sodipodi:r1="237.42789"
         sodipodi:cy="3.2392006"
         sodipodi:cx="266"
         sodipodi:sides="3"
         id="path3075-2-7-7"
         style="fill:#f5ca00;fill-opacity:1;fill-rule:nonzero;stroke:#000000;stroke-width:57.56384277;stroke-linecap:butt;stroke-linejoin:miter;stroke-miterlimit:4;stroke-opacity:1;stroke-dasharray:none;stroke-dashoffset:0"
         sodipodi:type="star" />
      <path
         sodipodi:type="star"
         style="fill:#f5ca00;fill-opacity:1;fill-rule:nonzero;stroke:#000000;stroke-width:57.56384277;stroke-linecap:butt;stroke-linejoin:miter;stroke-miterlimit:4;stroke-opacity:1;stroke-dasharray:none;stroke-dashoffset:0"
         id="path3908"
         sodipodi:sides="3"
         sodipodi:cx="266"
         sodipodi:cy="3.2392006"
         sodipodi:r1="237.42789"
         sodipodi:r2="118.71394"
         sodipodi:arg1="1.5707963"
         sodipodi:arg2="2.6179939"
         inkscape:flatsided="false"
         inkscape:rounded="0"
         inkscape:randomized="0"
         d="M 266.00001,240.66709 163.19071,62.59617 60.381415,-115.47474 l 205.618585,0 205.61858,-1e-5 -102.80929,178.070925 z"
         transform="matrix(0.43430041,-0.75223037,0.75223037,0.43430041,13.854157,576.31573)"
         inkscape:transform-center-y="-51.55751"
         inkscape:transform-center-x="-1.3837462e-05" />
      <path
         inkscape:transform-center-x="-1.3837462e-05"
         inkscape:transform-center-y="-51.55751"
         transform="matrix(0.43430041,-0.75223037,0.75223037,0.43430041,273.50053,982.31573)"
         d="M 266.00001,240.66709 163.19071,62.59617 60.381415,-115.47474 l 205.618585,0 205.61858,-1e-5 -102.80929,178.070925 z"
         inkscape:randomized="0"
         inkscape:rounded="0"
         inkscape:flatsided="false"
         sodipodi:arg2="2.6179939"
         sodipodi:arg1="1.5707963"
         sodipodi:r2="118.71394"
         sodipodi:r1="237.42789"
         sodipodi:cy="3.2392006"
         sodipodi:cx="266"
         sodipodi:sides="3"
         id="path3910"
         style="fill:#f5ca00;fill-opacity:1;fill-rule:nonzero;stroke:#000000;stroke-width:57.56384277;stroke-linecap:butt;stroke-linejoin:miter;stroke-miterlimit:4;stroke-opacity:1;stroke-dasharray:none;stroke-dashoffset:0"
         sodipodi:type="star" />
    </g>
    <flowRoot
       xml:space="preserve"
       id="flowRoot4006"
       style="font-size:40px;font-style:normal;font-variant:normal;font-weight:normal;font-stretch:normal;line-height:125%;letter-spacing:0px;word-spacing:0px;fill:#000000;fill-opacity:1;stroke:none;font-family:Purisa;-inkscape-font-specification:Purisa"
       transform="matrix(0.11943471,0,0,0.11943471,315.23318,1.8347084)"><flowRegion
         id="flowRegion4008"><rect
           id="rect4010"
           width="2291.4285"
           height="780"
           x="-1611.4286"
           y="115.21932" /></flowRegion><flowPara
         id="flowPara4012" /></flowRoot>    <g
       transform="matrix(0.11943471,0,0,0.11943471,325.9823,20.768774)"
       style="font-size:1152px;font-style:normal;font-variant:normal;font-weight:normal;font-stretch:normal;line-height:125%;letter-spacing:0px;word-spacing:0px;fill:#000000;fill-opacity:1;stroke:none;font-family:Purisa;-inkscape-font-specification:Purisa"
       id="flowRoot4014">
      <path
         d="m -1963.3652,703.45702 0,-527.97852 -4.834,32.76367 -178.8574,495.21485 -36.5235,0 -180.4687,-495.21485 -4.2969,-32.76367 0,527.97852 -69.2871,0 0,-770.214847 35.9863,0 233.6426,631.640627 2.1484,28.46679 2.1485,-28.46679 233.1054,-631.640627 36.5235,0 0,770.214847 -69.2871,0"
         style="font-size:1100px;font-family:Abel;-inkscape-font-specification:Abel"
         id="path3610" />
      <path
         d="m -1717.9063,703.45702 0,-770.214847 433.4473,0 0,66.06445266 -364.1601,0 0,286.27929434 294.873,0 0,66.06446 -294.873,0 0,285.74218 364.1601,0 0,66.06446 -433.4473,0"
         style="font-size:1100px;font-family:Abel;-inkscape-font-specification:Abel"
         id="path3612" />
      <path
         d="m -965.95312,-0.69337434 0,704.15039434 -69.28708,0 0,-704.15039434 -183.6914,0 0,-66.06445266 436.66988,0 0,66.06445266 -183.6914,0"
         style="font-size:1100px;font-family:Abel;-inkscape-font-specification:Abel"
         id="path3614" />
      <path
         d="m -414.87891,524.06249 -243.84765,0 -50.48828,179.39453 -71.97266,0 225.58594,-770.214847 36.52344,0 226.66015,770.214847 -71.43555,0 -51.02539,-179.39453 m -225.04882,-66.06446 206.78711,0 -101.51368,-355.02929 -2.14843,-28.466802 -2.14844,28.466802 -100.97656,355.02929"
         style="font-size:1100px;font-family:Abel;-inkscape-font-specification:Abel"
         id="path3616" />
    </g>
    <g
       transform="matrix(0.11943471,0,0,0.11943471,726.08855,20.768774)"
       style="font-size:1152px;font-style:normal;font-variant:normal;font-weight:normal;font-stretch:normal;line-height:125%;letter-spacing:0px;word-spacing:0px;fill:#000000;fill-opacity:1;stroke:none;font-family:Purisa;-inkscape-font-specification:Purisa"
       id="flowRoot4022">
      <path
         d="m -1963.3652,703.45702 0,-527.97852 -4.834,32.76367 -178.8574,495.21485 -36.5235,0 -180.4687,-495.21485 -4.2969,-32.76367 0,527.97852 -69.2871,0 0,-770.214847 35.9863,0 233.6426,631.640627 2.1484,28.46679 2.1485,-28.46679 233.1054,-631.640627 36.5235,0 0,770.214847 -69.2871,0"
         style="font-size:1100px;font-family:Abel;-inkscape-font-specification:Abel"
         id="path3574" />
      <path
         d="m -1717.9063,703.45702 0,-770.214847 433.4473,0 0,66.06445266 -364.1601,0 0,286.27929434 294.873,0 0,66.06446 -294.873,0 0,285.74218 364.1601,0 0,66.06446 -433.4473,0"
         style="font-size:1100px;font-family:Abel;-inkscape-font-specification:Abel"
         id="path3576" />
      <path
         d="m -730.69922,525.1367 c -5.1e-4,26.13948 -5.3716,50.66745 -16.11328,73.58399 -10.3846,22.91675 -24.52846,42.96881 -42.43164,60.15625 -17.54601,17.18753 -38.13518,30.79428 -61.76758,40.82031 -23.27511,9.66796 -47.98211,14.50194 -74.12109,14.50195 l -55.32227,0 c -26.13952,-10e-6 -51.02562,-4.83399 -74.65822,-14.50195 -23.2749,-10.02603 -43.8641,-23.63278 -61.7676,-40.82031 -17.5456,-17.18744 -31.6895,-37.2395 -42.4316,-60.15625 -10.3842,-22.91654 -15.5762,-47.44451 -15.5762,-73.58399 l 0,-30.61523 69.2871,-11.2793 0,41.89453 c -10e-5,17.18766 3.4016,33.30093 10.2051,48.33985 7.1613,14.6811 16.6502,27.75075 28.4668,39.20898 11.8162,11.10034 25.423,19.87312 40.8203,26.31836 15.755,6.44537 32.22634,9.66802 49.41409,9.66797 l 48.33984,0 c 17.18717,5e-5 33.47947,-3.2226 48.87695,-9.66797 15.39676,-6.44524 29.00352,-15.21802 40.82032,-26.31836 11.81599,-11.45823 21.12588,-24.52788 27.92968,-39.20898 7.16103,-15.03892 10.74175,-31.15219 10.74219,-48.33985 l 0,-23.0957 c -4.4e-4,-26.49717 -5.19249,-48.51863 -15.57617,-66.06445 -10.38453,-17.54529 -24.17032,-32.4053 -41.35742,-44.58008 -17.18787,-12.53223 -36.70282,-23.09537 -58.54492,-31.68945 -21.48468,-8.5934 -43.68518,-17.18714 -66.60157,-25.78125 -22.91689,-8.59338 -45.29639,-18.0823 -67.13869,-28.4668 -21.4845,-10.38371 -40.8204,-23.27432 -58.0078,-38.67188 -17.1876,-15.75475 -30.9734,-34.91163 -41.3574,-57.4707 -10.3842,-22.55808 -15.5763,-50.3087 -15.5762,-83.25195 l 0,-14.50195 c -10e-5,-26.13871 4.8339,-50.66668 14.502,-73.583989 10.0259,-22.915979 23.6327,-42.9680419 40.8203,-60.15625 17.1873,-17.186758 37.2394,-30.614478 60.1562,-40.283203 23.2746,-10.025266 47.9816,-15.038282 74.12113,-15.039063 l 49.41406,0 c 26.13898,7.81e-4 50.66695,5.013797 73.58398,15.039063 22.91626,9.668725 42.96832,23.096445 60.15625,40.283203 17.18704,17.1882081 30.61476,37.240271 40.28321,60.15625 10.02554,22.917309 15.03855,47.445279 15.03906,73.583989 l 0,19.87304 -69.28711,11.2793 0,-31.15234 c -4.4e-4,-17.186896 -3.22309,-33.121125 -9.66797,-47.802739 -6.44573,-15.038408 -15.21851,-28.108056 -26.31836,-39.208985 -11.10065,-11.09957 -24.1703,-19.8723478 -39.20898,-26.3183591 -14.68134,-6.4446008 -30.61557,-9.6672539 -47.80274,-9.6679689 l -42.96875,0 c -17.18775,7.15e-4 -33.30098,3.2233681 -48.33988,9.6679689 -14.6812,6.4460113 -27.7508,15.2187891 -39.2089,26.3183591 -11.1005,11.100929 -19.8733,24.170577 -26.3184,39.208985 -6.4455,14.681614 -9.6681,30.615843 -9.668,47.802739 l 0,14.50195 c -10e-5,24.70758 5.1919,45.47579 15.5762,62.30469 10.3839,16.82992 24.1697,31.33186 41.3574,43.50586 17.1873,11.81686 36.5232,22.20097 58.00783,31.15234 21.84217,8.59418 44.2217,17.54599 67.13867,26.85547 22.91632,8.95223 45.11682,18.97826 66.60157,30.07812 21.84203,10.74256 41.35698,24.17028 58.54492,40.28321 17.18703,15.75553 30.97282,35.09145 41.35742,58.00781 10.38361,22.91693 15.57566,50.84659 15.57617,83.78906 l 0,23.0957"
         style="font-size:1100px;font-family:Abel;-inkscape-font-specification:Abel"
         id="path3578" />
      <path
         d="m -217.22266,703.45702 0,-351.80664 -294.87304,0 0,351.80664 -69.28711,0 0,-770.214847 69.28711,0 0,352.343747 294.87304,0 0,-352.343747 69.28711,0 0,770.214847 -69.28711,0"
         style="font-size:1100px;font-family:Abel;-inkscape-font-specification:Abel"
         id="path3580" />
    </g>
    <flowRoot
       style="font-size:40px;font-style:normal;font-variant:normal;font-weight:normal;font-stretch:normal;line-height:125%;letter-spacing:0px;word-spacing:0px;fill:#000000;fill-opacity:1;stroke:none;font-family:Purisa;-inkscape-font-specification:Purisa"
       id="flowRoot3120"
       xml:space="preserve"
       transform="matrix(0.11943471,0,0,0.11943471,313.80461,191.83471)"><flowRegion
         id="flowRegion3122"><rect
           y="115.21932"
           x="-1611.4286"
           height="780"
           width="2291.4285"
           id="rect3124" /></flowRegion><flowPara
         id="flowPara3126" /></flowRoot>    <g
       inkscape:label="Layer 1"
       id="g3106"
       transform="matrix(0.16736206,0,0,0.16736206,294.29852,161.2264)">
      <path
         sodipodi:type="star"
         style="fill:#f5ca00;fill-opacity:1;fill-rule:nonzero;stroke:#000000;stroke-width:57.56384277;stroke-linecap:butt;stroke-linejoin:miter;stroke-miterlimit:4;stroke-opacity:1;stroke-dasharray:none;stroke-dashoffset:0"
         id="path3108"
         sodipodi:sides="3"
         sodipodi:cx="266"
         sodipodi:cy="3.2392006"
         sodipodi:r1="237.42789"
         sodipodi:r2="118.71394"
         sodipodi:arg1="1.5707963"
         sodipodi:arg2="2.6179939"
         inkscape:flatsided="false"
         inkscape:rounded="0"
         inkscape:randomized="0"
         d="M 266.00001,240.66709 163.19071,62.59617 60.381415,-115.47474 l 205.618585,0 205.61858,-1e-5 -102.80929,178.070925 z"
         transform="matrix(0.86860081,0,0,0.86860081,159.24976,247.15981)"
         inkscape:transform-center-y="51.557518" />
      <path
         sodipodi:type="star"
         style="fill:#f5ca00;fill-opacity:1;fill-rule:nonzero;stroke:#000000;stroke-width:57.56384277;stroke-linecap:butt;stroke-linejoin:miter;stroke-miterlimit:4;stroke-opacity:1;stroke-dasharray:none;stroke-dashoffset:0"
         id="path3110"
         sodipodi:sides="3"
         sodipodi:cx="266"
         sodipodi:cy="3.2392006"
         sodipodi:r1="237.42789"
         sodipodi:r2="118.71394"
         sodipodi:arg1="1.5707963"
         sodipodi:arg2="2.6179939"
         inkscape:flatsided="false"
         inkscape:rounded="0"
         inkscape:randomized="0"
         d="M 266.00001,240.66709 163.19071,62.59617 60.381415,-115.47474 l 205.618585,0 205.61858,-1e-5 -102.80929,178.070925 z"
         transform="matrix(0.86860081,0,0,0.86860081,-99.23312,652.70064)"
         inkscape:transform-center-y="51.557518" />
      <path
         sodipodi:type="star"
         style="fill:#f5ca00;fill-opacity:1;fill-rule:nonzero;stroke:#000000;stroke-width:57.56384277;stroke-linecap:butt;stroke-linejoin:miter;stroke-miterlimit:4;stroke-opacity:1;stroke-dasharray:none;stroke-dashoffset:0"
         id="path3112"
         sodipodi:sides="3"
         sodipodi:cx="266"
         sodipodi:cy="3.2392006"
         sodipodi:r1="237.42789"
         sodipodi:r2="118.71394"
         sodipodi:arg1="1.5707963"
         sodipodi:arg2="2.6179939"
         inkscape:flatsided="false"
         inkscape:rounded="0"
         inkscape:randomized="0"
         d="M 266.00001,240.66709 163.19071,62.59617 60.381415,-115.47474 l 205.618585,0 205.61858,-1e-5 -102.80929,178.070925 z"
         transform="matrix(0.86860081,0,0,0.86860081,419.76688,652.70064)"
         inkscape:transform-center-y="51.557518" />
      <path
         sodipodi:type="star"
         style="fill:#f5ca00;fill-opacity:1;fill-rule:nonzero;stroke:#000000;stroke-width:57.56384277;stroke-linecap:butt;stroke-linejoin:miter;stroke-miterlimit:4;stroke-opacity:1;stroke-dasharray:none;stroke-dashoffset:0"
         id="path3114"
         sodipodi:sides="3"
         sodipodi:cx="266"
         sodipodi:cy="3.2392006"
         sodipodi:r1="237.42789"
         sodipodi:r2="118.71394"
         sodipodi:arg1="1.5707963"
         sodipodi:arg2="2.6179939"
         inkscape:flatsided="false"
         inkscape:rounded="0"
         inkscape:randomized="0"
         d="M 266.00001,240.66709 163.19071,62.59617 60.381415,-115.47474 l 205.618585,0 205.61858,-1e-5 -102.80929,178.070925 z"
         transform="matrix(0.43430041,-0.75223037,0.75223037,0.43430041,532.85416,576.31573)"
         inkscape:transform-center-y="-51.55751"
         inkscape:transform-center-x="-1.3837462e-05" />
      <path
         inkscape:transform-center-x="-1.3837462e-05"
         inkscape:transform-center-y="-51.55751"
         transform="matrix(0.43430041,-0.75223037,0.75223037,0.43430041,13.854157,576.31573)"
         d="M 266.00001,240.66709 163.19071,62.59617 60.381415,-115.47474 l 205.618585,0 205.61858,-1e-5 -102.80929,178.070925 z"
         inkscape:randomized="0"
         inkscape:rounded="0"
         inkscape:flatsided="false"
         sodipodi:arg2="2.6179939"
         sodipodi:arg1="1.5707963"
         sodipodi:r2="118.71394"
         sodipodi:r1="237.42789"
         sodipodi:cy="3.2392006"
         sodipodi:cx="266"
         sodipodi:sides="3"
         id="path3116"
         style="fill:#f5ca00;fill-opacity:1;fill-rule:nonzero;stroke:#000000;stroke-width:57.56384277;stroke-linecap:butt;stroke-linejoin:miter;stroke-miterlimit:4;stroke-opacity:1;stroke-dasharray:none;stroke-dashoffset:0"
         sodipodi:type="star" />
      <path
         sodipodi:type="star"
         style="fill:#f5ca00;fill-opacity:1;fill-rule:nonzero;stroke:#000000;stroke-width:57.56384277;stroke-linecap:butt;stroke-linejoin:miter;stroke-miterlimit:4;stroke-opacity:1;stroke-dasharray:none;stroke-dashoffset:0"
         id="path3118"
         sodipodi:sides="3"
         sodipodi:cx="266"
         sodipodi:cy="3.2392006"
         sodipodi:r1="237.42789"
         sodipodi:r2="118.71394"
         sodipodi:arg1="1.5707963"
         sodipodi:arg2="2.6179939"
         inkscape:flatsided="false"
         inkscape:rounded="0"
         inkscape:randomized="0"
         d="M 266.00001,240.66709 163.19071,62.59617 60.381415,-115.47474 l 205.618585,0 205.61858,-1e-5 -102.80929,178.070925 z"
         transform="matrix(0.43430041,-0.75223037,0.75223037,0.43430041,273.50053,982.31573)"
         inkscape:transform-center-y="-51.55751"
         inkscape:transform-center-x="-1.3837462e-05" />
    </g>
    <g
       transform="matrix(0.11943471,0,0,0.11943471,308.12516,209.69734)"
       style="font-size:1152px;font-style:normal;font-variant:normal;font-weight:normal;font-stretch:normal;line-height:125%;letter-spacing:0px;word-spacing:0px;fill:#000000;fill-opacity:1;stroke:none;font-family:Purisa;-inkscape-font-specification:Purisa"
       id="flowRoot3128">
      <path
         d="m -1963.3652,703.45702 0,-527.97852 -4.834,32.76367 -178.8574,495.21485 -36.5235,0 -180.4687,-495.21485 -4.2969,-32.76367 0,527.97852 -69.2871,0 0,-770.214847 35.9863,0 233.6426,631.640627 2.1484,28.46679 2.1485,-28.46679 233.1054,-631.640627 36.5235,0 0,770.214847 -69.2871,0"
         style="font-size:1100px;font-family:Abel;-inkscape-font-specification:Abel"
         id="path3601" />
      <path
         d="m -1717.9063,703.45702 0,-770.214847 433.4473,0 0,66.06445266 -364.1601,0 0,286.27929434 294.873,0 0,66.06446 -294.873,0 0,285.74218 364.1601,0 0,66.06446 -433.4473,0"
         style="font-size:1100px;font-family:Abel;-inkscape-font-specification:Abel"
         id="path3603" />
      <path
         d="m -965.95312,-0.69337434 0,704.15039434 -69.28708,0 0,-704.15039434 -183.6914,0 0,-66.06445266 436.66988,0 0,66.06445266 -183.6914,0"
         style="font-size:1100px;font-family:Abel;-inkscape-font-specification:Abel"
         id="path3605" />
      <path
         d="m -414.87891,524.06249 -243.84765,0 -50.48828,179.39453 -71.97266,0 225.58594,-770.214847 36.52344,0 226.66015,770.214847 -71.43555,0 -51.02539,-179.39453 m -225.04882,-66.06446 206.78711,0 -101.51368,-355.02929 -2.14843,-28.466802 -2.14844,28.466802 -100.97656,355.02929"
         style="font-size:1100px;font-family:Abel;-inkscape-font-specification:Abel"
         id="path3607" />
    </g>
    <g
       transform="matrix(0.11943471,0,0,0.11943471,737.51715,209.69734)"
       style="font-size:1152px;font-style:normal;font-variant:normal;font-weight:normal;font-stretch:normal;line-height:125%;letter-spacing:0px;word-spacing:0px;fill:#000000;fill-opacity:1;stroke:none;font-family:Purisa;-inkscape-font-specification:Purisa"
       id="flowRoot3136">
      <path
         d="m -1963.3652,703.45702 0,-527.97852 -4.834,32.76367 -178.8574,495.21485 -36.5235,0 -180.4687,-495.21485 -4.2969,-32.76367 0,527.97852 -69.2871,0 0,-770.214847 35.9863,0 233.6426,631.640627 2.1484,28.46679 2.1485,-28.46679 233.1054,-631.640627 36.5235,0 0,770.214847 -69.2871,0"
         style="font-size:1100px;font-family:Abel;-inkscape-font-specification:Abel"
         id="path3565" />
      <path
         d="m -1717.9063,703.45702 0,-770.214847 433.4473,0 0,66.06445266 -364.1601,0 0,286.27929434 294.873,0 0,66.06446 -294.873,0 0,285.74218 364.1601,0 0,66.06446 -433.4473,0"
         style="font-size:1100px;font-family:Abel;-inkscape-font-specification:Abel"
         id="path3567" />
      <path
         d="m -730.69922,525.1367 c -5.1e-4,26.13948 -5.3716,50.66745 -16.11328,73.58399 -10.3846,22.91675 -24.52846,42.96881 -42.43164,60.15625 -17.54601,17.18753 -38.13518,30.79428 -61.76758,40.82031 -23.27511,9.66796 -47.98211,14.50194 -74.12109,14.50195 l -55.32227,0 c -26.13952,-10e-6 -51.02562,-4.83399 -74.65822,-14.50195 -23.2749,-10.02603 -43.8641,-23.63278 -61.7676,-40.82031 -17.5456,-17.18744 -31.6895,-37.2395 -42.4316,-60.15625 -10.3842,-22.91654 -15.5762,-47.44451 -15.5762,-73.58399 l 0,-30.61523 69.2871,-11.2793 0,41.89453 c -10e-5,17.18766 3.4016,33.30093 10.2051,48.33985 7.1613,14.6811 16.6502,27.75075 28.4668,39.20898 11.8162,11.10034 25.423,19.87312 40.8203,26.31836 15.755,6.44537 32.22634,9.66802 49.41409,9.66797 l 48.33984,0 c 17.18717,5e-5 33.47947,-3.2226 48.87695,-9.66797 15.39676,-6.44524 29.00352,-15.21802 40.82032,-26.31836 11.81599,-11.45823 21.12588,-24.52788 27.92968,-39.20898 7.16103,-15.03892 10.74175,-31.15219 10.74219,-48.33985 l 0,-23.0957 c -4.4e-4,-26.49717 -5.19249,-48.51863 -15.57617,-66.06445 -10.38453,-17.54529 -24.17032,-32.4053 -41.35742,-44.58008 -17.18787,-12.53223 -36.70282,-23.09537 -58.54492,-31.68945 -21.48468,-8.5934 -43.68518,-17.18714 -66.60157,-25.78125 -22.91689,-8.59338 -45.29639,-18.0823 -67.13869,-28.4668 -21.4845,-10.38371 -40.8204,-23.27432 -58.0078,-38.67188 -17.1876,-15.75475 -30.9734,-34.91163 -41.3574,-57.4707 -10.3842,-22.55808 -15.5763,-50.3087 -15.5762,-83.25195 l 0,-14.50195 c -10e-5,-26.13871 4.8339,-50.66668 14.502,-73.583989 10.0259,-22.915979 23.6327,-42.9680419 40.8203,-60.15625 17.1873,-17.186758 37.2394,-30.614478 60.1562,-40.283203 23.2746,-10.025266 47.9816,-15.038282 74.12113,-15.039063 l 49.41406,0 c 26.13898,7.81e-4 50.66695,5.013797 73.58398,15.039063 22.91626,9.668725 42.96832,23.096445 60.15625,40.283203 17.18704,17.1882081 30.61476,37.240271 40.28321,60.15625 10.02554,22.917309 15.03855,47.445279 15.03906,73.583989 l 0,19.87304 -69.28711,11.2793 0,-31.15234 c -4.4e-4,-17.186896 -3.22309,-33.121125 -9.66797,-47.802739 -6.44573,-15.038408 -15.21851,-28.108056 -26.31836,-39.208985 -11.10065,-11.09957 -24.1703,-19.8723478 -39.20898,-26.3183591 -14.68134,-6.4446008 -30.61557,-9.6672539 -47.80274,-9.6679689 l -42.96875,0 c -17.18775,7.15e-4 -33.30098,3.2233681 -48.33988,9.6679689 -14.6812,6.4460113 -27.7508,15.2187891 -39.2089,26.3183591 -11.1005,11.100929 -19.8733,24.170577 -26.3184,39.208985 -6.4455,14.681614 -9.6681,30.615843 -9.668,47.802739 l 0,14.50195 c -10e-5,24.70758 5.1919,45.47579 15.5762,62.30469 10.3839,16.82992 24.1697,31.33186 41.3574,43.50586 17.1873,11.81686 36.5232,22.20097 58.00783,31.15234 21.84217,8.59418 44.2217,17.54599 67.13867,26.85547 22.91632,8.95223 45.11682,18.97826 66.60157,30.07812 21.84203,10.74256 41.35698,24.17028 58.54492,40.28321 17.18703,15.75553 30.97282,35.09145 41.35742,58.00781 10.38361,22.91693 15.57566,50.84659 15.57617,83.78906 l 0,23.0957"
         style="font-size:1100px;font-family:Abel;-inkscape-font-specification:Abel"
         id="path3569" />
      <path
         d="m -217.22266,703.45702 0,-351.80664 -294.87304,0 0,351.80664 -69.28711,0 0,-770.214847 69.28711,0 0,352.343747 294.87304,0 0,-352.343747 69.28711,0 0,770.214847 -69.28711,0"
         style="font-size:1100px;font-family:Abel;-inkscape-font-specification:Abel"
         id="path3571" />
    </g>
    <g
       transform="matrix(0.16736206,0,0,0.16736206,291.75319,357.65497)"
       id="g3182"
       inkscape:label="Layer 1">
      <path
         inkscape:transform-center-y="51.557518"
         transform="matrix(0.86860081,0,0,0.86860081,159.24976,247.15981)"
         d="M 266.00001,240.66709 163.19071,62.59617 60.381415,-115.47474 l 205.618585,0 205.61858,-1e-5 -102.80929,178.070925 z"
         inkscape:randomized="0"
         inkscape:rounded="0"
         inkscape:flatsided="false"
         sodipodi:arg2="2.6179939"
         sodipodi:arg1="1.5707963"
         sodipodi:r2="118.71394"
         sodipodi:r1="237.42789"
         sodipodi:cy="3.2392006"
         sodipodi:cx="266"
         sodipodi:sides="3"
         id="path3184"
         style="fill:#f5ca00;fill-opacity:1;fill-rule:nonzero;stroke:#000000;stroke-width:57.56384277;stroke-linecap:butt;stroke-linejoin:miter;stroke-miterlimit:4;stroke-opacity:1;stroke-dasharray:none;stroke-dashoffset:0"
         sodipodi:type="star" />
      <path
         inkscape:transform-center-y="51.557518"
         transform="matrix(0.86860081,0,0,0.86860081,-99.23312,652.70064)"
         d="M 266.00001,240.66709 163.19071,62.59617 60.381415,-115.47474 l 205.618585,0 205.61858,-1e-5 -102.80929,178.070925 z"
         inkscape:randomized="0"
         inkscape:rounded="0"
         inkscape:flatsided="false"
         sodipodi:arg2="2.6179939"
         sodipodi:arg1="1.5707963"
         sodipodi:r2="118.71394"
         sodipodi:r1="237.42789"
         sodipodi:cy="3.2392006"
         sodipodi:cx="266"
         sodipodi:sides="3"
         id="path3186"
         style="fill:#f5ca00;fill-opacity:1;fill-rule:nonzero;stroke:#000000;stroke-width:57.56384277;stroke-linecap:butt;stroke-linejoin:miter;stroke-miterlimit:4;stroke-opacity:1;stroke-dasharray:none;stroke-dashoffset:0"
         sodipodi:type="star" />
      <path
         inkscape:transform-center-y="51.557518"
         transform="matrix(0.86860081,0,0,0.86860081,419.76688,652.70064)"
         d="M 266.00001,240.66709 163.19071,62.59617 60.381415,-115.47474 l 205.618585,0 205.61858,-1e-5 -102.80929,178.070925 z"
         inkscape:randomized="0"
         inkscape:rounded="0"
         inkscape:flatsided="false"
         sodipodi:arg2="2.6179939"
         sodipodi:arg1="1.5707963"
         sodipodi:r2="118.71394"
         sodipodi:r1="237.42789"
         sodipodi:cy="3.2392006"
         sodipodi:cx="266"
         sodipodi:sides="3"
         id="path3188"
         style="fill:#f5ca00;fill-opacity:1;fill-rule:nonzero;stroke:#000000;stroke-width:57.56384277;stroke-linecap:butt;stroke-linejoin:miter;stroke-miterlimit:4;stroke-opacity:1;stroke-dasharray:none;stroke-dashoffset:0"
         sodipodi:type="star" />
      <path
         inkscape:transform-center-x="-1.3837462e-05"
         inkscape:transform-center-y="-51.55751"
         transform="matrix(0.43430041,-0.75223037,0.75223037,0.43430041,532.85416,576.31573)"
         d="M 266.00001,240.66709 163.19071,62.59617 60.381415,-115.47474 l 205.618585,0 205.61858,-1e-5 -102.80929,178.070925 z"
         inkscape:randomized="0"
         inkscape:rounded="0"
         inkscape:flatsided="false"
         sodipodi:arg2="2.6179939"
         sodipodi:arg1="1.5707963"
         sodipodi:r2="118.71394"
         sodipodi:r1="237.42789"
         sodipodi:cy="3.2392006"
         sodipodi:cx="266"
         sodipodi:sides="3"
         id="path3190"
         style="fill:#f5ca00;fill-opacity:1;fill-rule:nonzero;stroke:#000000;stroke-width:57.56384277;stroke-linecap:butt;stroke-linejoin:miter;stroke-miterlimit:4;stroke-opacity:1;stroke-dasharray:none;stroke-dashoffset:0"
         sodipodi:type="star" />
      <path
         sodipodi:type="star"
         style="fill:#f5ca00;fill-opacity:1;fill-rule:nonzero;stroke:#000000;stroke-width:57.56384277;stroke-linecap:butt;stroke-linejoin:miter;stroke-miterlimit:4;stroke-opacity:1;stroke-dasharray:none;stroke-dashoffset:0"
         id="path3192"
         sodipodi:sides="3"
         sodipodi:cx="266"
         sodipodi:cy="3.2392006"
         sodipodi:r1="237.42789"
         sodipodi:r2="118.71394"
         sodipodi:arg1="1.5707963"
         sodipodi:arg2="2.6179939"
         inkscape:flatsided="false"
         inkscape:rounded="0"
         inkscape:randomized="0"
         d="M 266.00001,240.66709 163.19071,62.59617 60.381415,-115.47474 l 205.618585,0 205.61858,-1e-5 -102.80929,178.070925 z"
         transform="matrix(0.43430041,-0.75223037,0.75223037,0.43430041,13.854157,576.31573)"
         inkscape:transform-center-y="-51.55751"
         inkscape:transform-center-x="-1.3837462e-05" />
      <path
         inkscape:transform-center-x="-1.3837462e-05"
         inkscape:transform-center-y="-51.55751"
         transform="matrix(0.43430041,-0.75223037,0.75223037,0.43430041,273.50053,982.31573)"
         d="M 266.00001,240.66709 163.19071,62.59617 60.381415,-115.47474 l 205.618585,0 205.61858,-1e-5 -102.80929,178.070925 z"
         inkscape:randomized="0"
         inkscape:rounded="0"
         inkscape:flatsided="false"
         sodipodi:arg2="2.6179939"
         sodipodi:arg1="1.5707963"
         sodipodi:r2="118.71394"
         sodipodi:r1="237.42789"
         sodipodi:cy="3.2392006"
         sodipodi:cx="266"
         sodipodi:sides="3"
         id="path3194"
         style="fill:#f5ca00;fill-opacity:1;fill-rule:nonzero;stroke:#000000;stroke-width:57.56384277;stroke-linecap:butt;stroke-linejoin:miter;stroke-miterlimit:4;stroke-opacity:1;stroke-dasharray:none;stroke-dashoffset:0"
         sodipodi:type="star" />
    </g>
    <g
       transform="matrix(0.08975839,0,0,0.08975839,295.78519,415.57335)"
       style="font-size:1152px;font-style:normal;font-variant:normal;font-weight:normal;font-stretch:normal;line-height:125%;letter-spacing:0px;word-spacing:0px;fill:#000000;fill-opacity:1;stroke:none;font-family:Purisa;-inkscape-font-specification:Purisa"
       id="flowRoot3196">
      <path
         d="m -1963.3652,703.45702 0,-527.97852 -4.834,32.76367 -178.8574,495.21485 -36.5235,0 -180.4687,-495.21485 -4.2969,-32.76367 0,527.97852 -69.2871,0 0,-770.214847 35.9863,0 233.6426,631.640627 2.1484,28.46679 2.1485,-28.46679 233.1054,-631.640627 36.5235,0 0,770.214847 -69.2871,0"
         style="font-size:1100px;font-family:Abel;-inkscape-font-specification:Abel"
         id="path3592" />
      <path
         d="m -1717.9063,703.45702 0,-770.214847 433.4473,0 0,66.06445266 -364.1601,0 0,286.27929434 294.873,0 0,66.06446 -294.873,0 0,285.74218 364.1601,0 0,66.06446 -433.4473,0"
         style="font-size:1100px;font-family:Abel;-inkscape-font-specification:Abel"
         id="path3594" />
      <path
         d="m -965.95312,-0.69337434 0,704.15039434 -69.28708,0 0,-704.15039434 -183.6914,0 0,-66.06445266 436.66988,0 0,66.06445266 -183.6914,0"
         style="font-size:1100px;font-family:Abel;-inkscape-font-specification:Abel"
         id="path3596" />
      <path
         d="m -414.87891,524.06249 -243.84765,0 -50.48828,179.39453 -71.97266,0 225.58594,-770.214847 36.52344,0 226.66015,770.214847 -71.43555,0 -51.02539,-179.39453 m -225.04882,-66.06446 206.78711,0 -101.51368,-355.02929 -2.14843,-28.466802 -2.14844,28.466802 -100.97656,355.02929"
         style="font-size:1100px;font-family:Abel;-inkscape-font-specification:Abel"
         id="path3598" />
    </g>
    <g
       transform="matrix(0.0896615,0,0,0.0896615,663.51244,415.6042)"
       style="font-size:1152px;font-style:normal;font-variant:normal;font-weight:normal;font-stretch:normal;line-height:125%;letter-spacing:0px;word-spacing:0px;fill:#000000;fill-opacity:1;stroke:none;font-family:Purisa;-inkscape-font-specification:Purisa"
       id="flowRoot3204">
      <path
         d="m -1963.3652,703.45702 0,-527.97852 -4.834,32.76367 -178.8574,495.21485 -36.5235,0 -180.4687,-495.21485 -4.2969,-32.76367 0,527.97852 -69.2871,0 0,-770.214847 35.9863,0 233.6426,631.640627 2.1484,28.46679 2.1485,-28.46679 233.1054,-631.640627 36.5235,0 0,770.214847 -69.2871,0"
         style="font-size:1100px;font-family:Abel;-inkscape-font-specification:Abel"
         id="path3556" />
      <path
         d="m -1717.9063,703.45702 0,-770.214847 433.4473,0 0,66.06445266 -364.1601,0 0,286.27929434 294.873,0 0,66.06446 -294.873,0 0,285.74218 364.1601,0 0,66.06446 -433.4473,0"
         style="font-size:1100px;font-family:Abel;-inkscape-font-specification:Abel"
         id="path3558" />
      <path
         d="m -730.69922,525.1367 c -5.1e-4,26.13948 -5.3716,50.66745 -16.11328,73.58399 -10.3846,22.91675 -24.52846,42.96881 -42.43164,60.15625 -17.54601,17.18753 -38.13518,30.79428 -61.76758,40.82031 -23.27511,9.66796 -47.98211,14.50194 -74.12109,14.50195 l -55.32227,0 c -26.13952,-10e-6 -51.02562,-4.83399 -74.65822,-14.50195 -23.2749,-10.02603 -43.8641,-23.63278 -61.7676,-40.82031 -17.5456,-17.18744 -31.6895,-37.2395 -42.4316,-60.15625 -10.3842,-22.91654 -15.5762,-47.44451 -15.5762,-73.58399 l 0,-30.61523 69.2871,-11.2793 0,41.89453 c -10e-5,17.18766 3.4016,33.30093 10.2051,48.33985 7.1613,14.6811 16.6502,27.75075 28.4668,39.20898 11.8162,11.10034 25.423,19.87312 40.8203,26.31836 15.755,6.44537 32.22634,9.66802 49.41409,9.66797 l 48.33984,0 c 17.18717,5e-5 33.47947,-3.2226 48.87695,-9.66797 15.39676,-6.44524 29.00352,-15.21802 40.82032,-26.31836 11.81599,-11.45823 21.12588,-24.52788 27.92968,-39.20898 7.16103,-15.03892 10.74175,-31.15219 10.74219,-48.33985 l 0,-23.0957 c -4.4e-4,-26.49717 -5.19249,-48.51863 -15.57617,-66.06445 -10.38453,-17.54529 -24.17032,-32.4053 -41.35742,-44.58008 -17.18787,-12.53223 -36.70282,-23.09537 -58.54492,-31.68945 -21.48468,-8.5934 -43.68518,-17.18714 -66.60157,-25.78125 -22.91689,-8.59338 -45.29639,-18.0823 -67.13869,-28.4668 -21.4845,-10.38371 -40.8204,-23.27432 -58.0078,-38.67188 -17.1876,-15.75475 -30.9734,-34.91163 -41.3574,-57.4707 -10.3842,-22.55808 -15.5763,-50.3087 -15.5762,-83.25195 l 0,-14.50195 c -10e-5,-26.13871 4.8339,-50.66668 14.502,-73.583989 10.0259,-22.915979 23.6327,-42.9680419 40.8203,-60.15625 17.1873,-17.186758 37.2394,-30.614478 60.1562,-40.283203 23.2746,-10.025266 47.9816,-15.038282 74.12113,-15.039063 l 49.41406,0 c 26.13898,7.81e-4 50.66695,5.013797 73.58398,15.039063 22.91626,9.668725 42.96832,23.096445 60.15625,40.283203 17.18704,17.1882081 30.61476,37.240271 40.28321,60.15625 10.02554,22.917309 15.03855,47.445279 15.03906,73.583989 l 0,19.87304 -69.28711,11.2793 0,-31.15234 c -4.4e-4,-17.186896 -3.22309,-33.121125 -9.66797,-47.802739 -6.44573,-15.038408 -15.21851,-28.108056 -26.31836,-39.208985 -11.10065,-11.09957 -24.1703,-19.8723478 -39.20898,-26.3183591 -14.68134,-6.4446008 -30.61557,-9.6672539 -47.80274,-9.6679689 l -42.96875,0 c -17.18775,7.15e-4 -33.30098,3.2233681 -48.33988,9.6679689 -14.6812,6.4460113 -27.7508,15.2187891 -39.2089,26.3183591 -11.1005,11.100929 -19.8733,24.170577 -26.3184,39.208985 -6.4455,14.681614 -9.6681,30.615843 -9.668,47.802739 l 0,14.50195 c -10e-5,24.70758 5.1919,45.47579 15.5762,62.30469 10.3839,16.82992 24.1697,31.33186 41.3574,43.50586 17.1873,11.81686 36.5232,22.20097 58.00783,31.15234 21.84217,8.59418 44.2217,17.54599 67.13867,26.85547 22.91632,8.95223 45.11682,18.97826 66.60157,30.07812 21.84203,10.74256 41.35698,24.17028 58.54492,40.28321 17.18703,15.75553 30.97282,35.09145 41.35742,58.00781 10.38361,22.91693 15.57566,50.84659 15.57617,83.78906 l 0,23.0957"
         style="font-size:1100px;font-family:Abel;-inkscape-font-specification:Abel"
         id="path3560" />
      <path
         d="m -217.22266,703.45702 0,-351.80664 -294.87304,0 0,351.80664 -69.28711,0 0,-770.214847 69.28711,0 0,352.343747 294.87304,0 0,-352.343747 69.28711,0 0,770.214847 -69.28711,0"
         style="font-size:1100px;font-family:Abel;-inkscape-font-specification:Abel"
         id="path3562" />
    </g>
    <flowRoot
       style="font-size:40px;font-style:normal;font-variant:normal;font-weight:normal;font-stretch:normal;line-height:125%;letter-spacing:0px;word-spacing:0px;fill:#000000;fill-opacity:1;stroke:none;font-family:Purisa;-inkscape-font-specification:Purisa"
       id="flowRoot3260"
       xml:space="preserve"
       transform="matrix(0.11943471,0,0,0.11943471,323.3144,579.64196)"><flowRegion
         id="flowRegion3262"><rect
           y="115.21932"
           x="-1611.4286"
           height="780"
           width="2291.4285"
           id="rect3264" /></flowRegion><flowPara
         id="flowPara3266" /></flowRoot>    <g
       inkscape:label="Layer 1"
       id="g3246"
       transform="matrix(0.07456434,0,0,0.07456434,334.83606,596.41142)">
      <path
         sodipodi:type="star"
         style="fill:#f5ca00;fill-opacity:1;fill-rule:nonzero;stroke:#000000;stroke-width:57.56384277;stroke-linecap:butt;stroke-linejoin:miter;stroke-miterlimit:4;stroke-opacity:1;stroke-dasharray:none;stroke-dashoffset:0"
         id="path3248"
         sodipodi:sides="3"
         sodipodi:cx="266"
         sodipodi:cy="3.2392006"
         sodipodi:r1="237.42789"
         sodipodi:r2="118.71394"
         sodipodi:arg1="1.5707963"
         sodipodi:arg2="2.6179939"
         inkscape:flatsided="false"
         inkscape:rounded="0"
         inkscape:randomized="0"
         d="M 266.00001,240.66709 163.19071,62.59617 60.381415,-115.47474 l 205.618585,0 205.61858,-1e-5 -102.80929,178.070925 z"
         transform="matrix(0.86860081,0,0,0.86860081,159.24976,247.15981)"
         inkscape:transform-center-y="51.557518" />
      <path
         sodipodi:type="star"
         style="fill:#f5ca00;fill-opacity:1;fill-rule:nonzero;stroke:#000000;stroke-width:57.56384277;stroke-linecap:butt;stroke-linejoin:miter;stroke-miterlimit:4;stroke-opacity:1;stroke-dasharray:none;stroke-dashoffset:0"
         id="path3250"
         sodipodi:sides="3"
         sodipodi:cx="266"
         sodipodi:cy="3.2392006"
         sodipodi:r1="237.42789"
         sodipodi:r2="118.71394"
         sodipodi:arg1="1.5707963"
         sodipodi:arg2="2.6179939"
         inkscape:flatsided="false"
         inkscape:rounded="0"
         inkscape:randomized="0"
         d="M 266.00001,240.66709 163.19071,62.59617 60.381415,-115.47474 l 205.618585,0 205.61858,-1e-5 -102.80929,178.070925 z"
         transform="matrix(0.86860081,0,0,0.86860081,-99.23312,652.70064)"
         inkscape:transform-center-y="51.557518" />
      <path
         sodipodi:type="star"
         style="fill:#f5ca00;fill-opacity:1;fill-rule:nonzero;stroke:#000000;stroke-width:57.56384277;stroke-linecap:butt;stroke-linejoin:miter;stroke-miterlimit:4;stroke-opacity:1;stroke-dasharray:none;stroke-dashoffset:0"
         id="path3252"
         sodipodi:sides="3"
         sodipodi:cx="266"
         sodipodi:cy="3.2392006"
         sodipodi:r1="237.42789"
         sodipodi:r2="118.71394"
         sodipodi:arg1="1.5707963"
         sodipodi:arg2="2.6179939"
         inkscape:flatsided="false"
         inkscape:rounded="0"
         inkscape:randomized="0"
         d="M 266.00001,240.66709 163.19071,62.59617 60.381415,-115.47474 l 205.618585,0 205.61858,-1e-5 -102.80929,178.070925 z"
         transform="matrix(0.86860081,0,0,0.86860081,419.76688,652.70064)"
         inkscape:transform-center-y="51.557518" />
      <path
         sodipodi:type="star"
         style="fill:#f5ca00;fill-opacity:1;fill-rule:nonzero;stroke:#000000;stroke-width:57.56384277;stroke-linecap:butt;stroke-linejoin:miter;stroke-miterlimit:4;stroke-opacity:1;stroke-dasharray:none;stroke-dashoffset:0"
         id="path3254"
         sodipodi:sides="3"
         sodipodi:cx="266"
         sodipodi:cy="3.2392006"
         sodipodi:r1="237.42789"
         sodipodi:r2="118.71394"
         sodipodi:arg1="1.5707963"
         sodipodi:arg2="2.6179939"
         inkscape:flatsided="false"
         inkscape:rounded="0"
         inkscape:randomized="0"
         d="M 266.00001,240.66709 163.19071,62.59617 60.381415,-115.47474 l 205.618585,0 205.61858,-1e-5 -102.80929,178.070925 z"
         transform="matrix(0.43430041,-0.75223037,0.75223037,0.43430041,532.85416,576.31573)"
         inkscape:transform-center-y="-51.55751"
         inkscape:transform-center-x="-1.3837462e-05" />
      <path
         inkscape:transform-center-x="-1.3837462e-05"
         inkscape:transform-center-y="-51.55751"
         transform="matrix(0.43430041,-0.75223037,0.75223037,0.43430041,13.854157,576.31573)"
         d="M 266.00001,240.66709 163.19071,62.59617 60.381415,-115.47474 l 205.618585,0 205.61858,-1e-5 -102.80929,178.070925 z"
         inkscape:randomized="0"
         inkscape:rounded="0"
         inkscape:flatsided="false"
         sodipodi:arg2="2.6179939"
         sodipodi:arg1="1.5707963"
         sodipodi:r2="118.71394"
         sodipodi:r1="237.42789"
         sodipodi:cy="3.2392006"
         sodipodi:cx="266"
         sodipodi:sides="3"
         id="path3256"
         style="fill:#f5ca00;fill-opacity:1;fill-rule:nonzero;stroke:#000000;stroke-width:57.56384277;stroke-linecap:butt;stroke-linejoin:miter;stroke-miterlimit:4;stroke-opacity:1;stroke-dasharray:none;stroke-dashoffset:0"
         sodipodi:type="star" />
      <path
         sodipodi:type="star"
         style="fill:#f5ca00;fill-opacity:1;fill-rule:nonzero;stroke:#000000;stroke-width:57.56384277;stroke-linecap:butt;stroke-linejoin:miter;stroke-miterlimit:4;stroke-opacity:1;stroke-dasharray:none;stroke-dashoffset:0"
         id="path3258"
         sodipodi:sides="3"
         sodipodi:cx="266"
         sodipodi:cy="3.2392006"
         sodipodi:r1="237.42789"
         sodipodi:r2="118.71394"
         sodipodi:arg1="1.5707963"
         sodipodi:arg2="2.6179939"
         inkscape:flatsided="false"
         inkscape:rounded="0"
         inkscape:randomized="0"
         d="M 266.00001,240.66709 163.19071,62.59617 60.381415,-115.47474 l 205.618585,0 205.61858,-1e-5 -102.80929,178.070925 z"
         transform="matrix(0.43430041,-0.75223037,0.75223037,0.43430041,273.50053,982.31573)"
         inkscape:transform-center-y="-51.55751"
         inkscape:transform-center-x="-1.3837462e-05" />
    </g>
    <g
       transform="matrix(0.11943471,0,0,0.11943471,346.18535,596.92438)"
       style="font-size:1152px;font-style:normal;font-variant:normal;font-weight:normal;font-stretch:normal;line-height:125%;letter-spacing:0px;word-spacing:0px;fill:#000000;fill-opacity:1;stroke:none;font-family:Purisa;-inkscape-font-specification:Purisa"
       id="flowRoot3268">
      <path
         d="m -1963.3652,703.45702 0,-527.97852 -4.834,32.76367 -178.8574,495.21485 -36.5235,0 -180.4687,-495.21485 -4.2969,-32.76367 0,527.97852 -69.2871,0 0,-770.214847 35.9863,0 233.6426,631.640627 2.1484,28.46679 2.1485,-28.46679 233.1054,-631.640627 36.5235,0 0,770.214847 -69.2871,0"
         style="font-size:1100px;font-family:Abel;-inkscape-font-specification:Abel"
         id="path3583" />
      <path
         d="m -1717.9063,703.45702 0,-770.214847 433.4473,0 0,66.06445266 -364.1601,0 0,286.27929434 294.873,0 0,66.06446 -294.873,0 0,285.74218 364.1601,0 0,66.06446 -433.4473,0"
         style="font-size:1100px;font-family:Abel;-inkscape-font-specification:Abel"
         id="path3585" />
      <path
         d="m -965.95312,-0.69337434 0,704.15039434 -69.28708,0 0,-704.15039434 -183.6914,0 0,-66.06445266 436.66988,0 0,66.06445266 -183.6914,0"
         style="font-size:1100px;font-family:Abel;-inkscape-font-specification:Abel"
         id="path3587" />
      <path
         d="m -414.87891,524.06249 -243.84765,0 -50.48828,179.39453 -71.97266,0 225.58594,-770.214847 36.52344,0 226.66015,770.214847 -71.43555,0 -51.02539,-179.39453 m -225.04882,-66.06446 206.78711,0 -101.51368,-355.02929 -2.14843,-28.466802 -2.14844,28.466802 -100.97656,355.02929"
         style="font-size:1100px;font-family:Abel;-inkscape-font-specification:Abel"
         id="path3589" />
    </g>
    <g
       transform="matrix(0.11943471,0,0,0.11943471,707.90582,596.92438)"
       style="font-size:1152px;font-style:normal;font-variant:normal;font-weight:normal;font-stretch:normal;line-height:125%;letter-spacing:0px;word-spacing:0px;fill:#000000;fill-opacity:1;stroke:none;font-family:Purisa;-inkscape-font-specification:Purisa"
       id="flowRoot3276">
      <path
         d="m -1963.3652,703.45702 0,-527.97852 -4.834,32.76367 -178.8574,495.21485 -36.5235,0 -180.4687,-495.21485 -4.2969,-32.76367 0,527.97852 -69.2871,0 0,-770.214847 35.9863,0 233.6426,631.640627 2.1484,28.46679 2.1485,-28.46679 233.1054,-631.640627 36.5235,0 0,770.214847 -69.2871,0"
         style="font-size:1100px;font-family:Abel;-inkscape-font-specification:Abel"
         id="path3513" />
      <path
         d="m -1717.9063,703.45702 0,-770.214847 433.4473,0 0,66.06445266 -364.1601,0 0,286.27929434 294.873,0 0,66.06446 -294.873,0 0,285.74218 364.1601,0 0,66.06446 -433.4473,0"
         style="font-size:1100px;font-family:Abel;-inkscape-font-specification:Abel"
         id="path3515" />
      <path
         d="m -730.69922,525.1367 c -5.1e-4,26.13948 -5.3716,50.66745 -16.11328,73.58399 -10.3846,22.91675 -24.52846,42.96881 -42.43164,60.15625 -17.54601,17.18753 -38.13518,30.79428 -61.76758,40.82031 -23.27511,9.66796 -47.98211,14.50194 -74.12109,14.50195 l -55.32227,0 c -26.13952,-10e-6 -51.02562,-4.83399 -74.65822,-14.50195 -23.2749,-10.02603 -43.8641,-23.63278 -61.7676,-40.82031 -17.5456,-17.18744 -31.6895,-37.2395 -42.4316,-60.15625 -10.3842,-22.91654 -15.5762,-47.44451 -15.5762,-73.58399 l 0,-30.61523 69.2871,-11.2793 0,41.89453 c -10e-5,17.18766 3.4016,33.30093 10.2051,48.33985 7.1613,14.6811 16.6502,27.75075 28.4668,39.20898 11.8162,11.10034 25.423,19.87312 40.8203,26.31836 15.755,6.44537 32.22634,9.66802 49.41409,9.66797 l 48.33984,0 c 17.18717,5e-5 33.47947,-3.2226 48.87695,-9.66797 15.39676,-6.44524 29.00352,-15.21802 40.82032,-26.31836 11.81599,-11.45823 21.12588,-24.52788 27.92968,-39.20898 7.16103,-15.03892 10.74175,-31.15219 10.74219,-48.33985 l 0,-23.0957 c -4.4e-4,-26.49717 -5.19249,-48.51863 -15.57617,-66.06445 -10.38453,-17.54529 -24.17032,-32.4053 -41.35742,-44.58008 -17.18787,-12.53223 -36.70282,-23.09537 -58.54492,-31.68945 -21.48468,-8.5934 -43.68518,-17.18714 -66.60157,-25.78125 -22.91689,-8.59338 -45.29639,-18.0823 -67.13869,-28.4668 -21.4845,-10.38371 -40.8204,-23.27432 -58.0078,-38.67188 -17.1876,-15.75475 -30.9734,-34.91163 -41.3574,-57.4707 -10.3842,-22.55808 -15.5763,-50.3087 -15.5762,-83.25195 l 0,-14.50195 c -10e-5,-26.13871 4.8339,-50.66668 14.502,-73.583989 10.0259,-22.915979 23.6327,-42.9680419 40.8203,-60.15625 17.1873,-17.186758 37.2394,-30.614478 60.1562,-40.283203 23.2746,-10.025266 47.9816,-15.038282 74.12113,-15.039063 l 49.41406,0 c 26.13898,7.81e-4 50.66695,5.013797 73.58398,15.039063 22.91626,9.668725 42.96832,23.096445 60.15625,40.283203 17.18704,17.1882081 30.61476,37.240271 40.28321,60.15625 10.02554,22.917309 15.03855,47.445279 15.03906,73.583989 l 0,19.87304 -69.28711,11.2793 0,-31.15234 c -4.4e-4,-17.186896 -3.22309,-33.121125 -9.66797,-47.802739 -6.44573,-15.038408 -15.21851,-28.108056 -26.31836,-39.208985 -11.10065,-11.09957 -24.1703,-19.8723478 -39.20898,-26.3183591 -14.68134,-6.4446008 -30.61557,-9.6672539 -47.80274,-9.6679689 l -42.96875,0 c -17.18775,7.15e-4 -33.30098,3.2233681 -48.33988,9.6679689 -14.6812,6.4460113 -27.7508,15.2187891 -39.2089,26.3183591 -11.1005,11.100929 -19.8733,24.170577 -26.3184,39.208985 -6.4455,14.681614 -9.6681,30.615843 -9.668,47.802739 l 0,14.50195 c -10e-5,24.70758 5.1919,45.47579 15.5762,62.30469 10.3839,16.82992 24.1697,31.33186 41.3574,43.50586 17.1873,11.81686 36.5232,22.20097 58.00783,31.15234 21.84217,8.59418 44.2217,17.54599 67.13867,26.85547 22.91632,8.95223 45.11682,18.97826 66.60157,30.07812 21.84203,10.74256 41.35698,24.17028 58.54492,40.28321 17.18703,15.75553 30.97282,35.09145 41.35742,58.00781 10.38361,22.91693 15.57566,50.84659 15.57617,83.78906 l 0,23.0957"
         style="font-size:1100px;font-family:Abel;-inkscape-font-specification:Abel"
         id="path3517" />
      <path
         d="m -217.22266,703.45702 0,-351.80664 -294.87304,0 0,351.80664 -69.28711,0 0,-770.214847 69.28711,0 0,352.343747 294.87304,0 0,-352.343747 69.28711,0 0,770.214847 -69.28711,0"
         style="font-size:1100px;font-family:Abel;-inkscape-font-specification:Abel"
         id="path3519" />
    </g>
    <path
       inkscape:transform-center-y="51.557518"
       transform="matrix(0.10374109,0,0,0.10374109,618.81647,757.93666)"
       d="M 266.00001,240.66709 163.19071,62.59617 60.381415,-115.47474 l 205.618585,0 205.61858,-1e-5 -102.80929,178.070925 z"
       inkscape:randomized="0"
       inkscape:rounded="0"
       inkscape:flatsided="false"
       sodipodi:arg2="2.6179939"
       sodipodi:arg1="1.5707963"
       sodipodi:r2="118.71394"
       sodipodi:r1="237.42789"
       sodipodi:cy="3.2392006"
       sodipodi:cx="266"
       sodipodi:sides="3"
       id="path3324"
       style="fill:#f5ca00;fill-opacity:1;fill-rule:nonzero;stroke:#000000;stroke-width:57.56384277;stroke-linecap:butt;stroke-linejoin:miter;stroke-miterlimit:4;stroke-opacity:1;stroke-dasharray:none;stroke-dashoffset:0"
       sodipodi:type="star" />
    <path
       inkscape:transform-center-y="51.557518"
       transform="matrix(0.10374109,0,0,0.10374109,587.94464,806.37231)"
       d="M 266.00001,240.66709 163.19071,62.59617 60.381415,-115.47474 l 205.618585,0 205.61858,-1e-5 -102.80929,178.070925 z"
       inkscape:randomized="0"
       inkscape:rounded="0"
       inkscape:flatsided="false"
       sodipodi:arg2="2.6179939"
       sodipodi:arg1="1.5707963"
       sodipodi:r2="118.71394"
       sodipodi:r1="237.42789"
       sodipodi:cy="3.2392006"
       sodipodi:cx="266"
       sodipodi:sides="3"
       id="path3326"
       style="fill:#f5ca00;fill-opacity:1;fill-rule:nonzero;stroke:#000000;stroke-width:57.56384277;stroke-linecap:butt;stroke-linejoin:miter;stroke-miterlimit:4;stroke-opacity:1;stroke-dasharray:none;stroke-dashoffset:0"
       sodipodi:type="star" />
    <path
       inkscape:transform-center-y="51.557518"
       transform="matrix(0.10374109,0,0,0.10374109,649.93126,806.37231)"
       d="M 266.00001,240.66709 163.19071,62.59617 60.381415,-115.47474 l 205.618585,0 205.61858,-1e-5 -102.80929,178.070925 z"
       inkscape:randomized="0"
       inkscape:rounded="0"
       inkscape:flatsided="false"
       sodipodi:arg2="2.6179939"
       sodipodi:arg1="1.5707963"
       sodipodi:r2="118.71394"
       sodipodi:r1="237.42789"
       sodipodi:cy="3.2392006"
       sodipodi:cx="266"
       sodipodi:sides="3"
       id="path3328"
       style="fill:#f5ca00;fill-opacity:1;fill-rule:nonzero;stroke:#000000;stroke-width:57.56384277;stroke-linecap:butt;stroke-linejoin:miter;stroke-miterlimit:4;stroke-opacity:1;stroke-dasharray:none;stroke-dashoffset:0"
       sodipodi:type="star" />
    <path
       inkscape:transform-center-x="-1.3837462e-05"
       inkscape:transform-center-y="-51.55751"
       transform="matrix(0.05187054,-0.08984242,0.08984242,0.05187054,663.4378,797.2493)"
       d="M 266.00001,240.66709 163.19071,62.59617 60.381415,-115.47474 l 205.618585,0 205.61858,-1e-5 -102.80929,178.070925 z"
       inkscape:randomized="0"
       inkscape:rounded="0"
       inkscape:flatsided="false"
       sodipodi:arg2="2.6179939"
       sodipodi:arg1="1.5707963"
       sodipodi:r2="118.71394"
       sodipodi:r1="237.42789"
       sodipodi:cy="3.2392006"
       sodipodi:cx="266"
       sodipodi:sides="3"
       id="path3330"
       style="fill:#f5ca00;fill-opacity:1;fill-rule:nonzero;stroke:#000000;stroke-width:57.56384277;stroke-linecap:butt;stroke-linejoin:miter;stroke-miterlimit:4;stroke-opacity:1;stroke-dasharray:none;stroke-dashoffset:0"
       sodipodi:type="star" />
    <path
       sodipodi:type="star"
       style="fill:#f5ca00;fill-opacity:1;fill-rule:nonzero;stroke:#000000;stroke-width:57.56384277;stroke-linecap:butt;stroke-linejoin:miter;stroke-miterlimit:4;stroke-opacity:1;stroke-dasharray:none;stroke-dashoffset:0"
       id="path3332"
       sodipodi:sides="3"
       sodipodi:cx="266"
       sodipodi:cy="3.2392006"
       sodipodi:r1="237.42789"
       sodipodi:r2="118.71394"
       sodipodi:arg1="1.5707963"
       sodipodi:arg2="2.6179939"
       inkscape:flatsided="false"
       inkscape:rounded="0"
       inkscape:randomized="0"
       d="M 266.00001,240.66709 163.19071,62.59617 60.381415,-115.47474 l 205.618585,0 205.61858,-1e-5 -102.80929,178.070925 z"
       transform="matrix(0.05187054,-0.08984242,0.08984242,0.05187054,601.45119,797.2493)"
       inkscape:transform-center-y="-51.55751"
       inkscape:transform-center-x="-1.3837462e-05" />
    <path
       inkscape:transform-center-x="-1.3837462e-05"
       inkscape:transform-center-y="-51.55751"
       transform="matrix(0.05187054,-0.08984242,0.08984242,0.05187054,632.46198,845.73979)"
       d="M 266.00001,240.66709 163.19071,62.59617 60.381415,-115.47474 l 205.618585,0 205.61858,-1e-5 -102.80929,178.070925 z"
       inkscape:randomized="0"
       inkscape:rounded="0"
       inkscape:flatsided="false"
       sodipodi:arg2="2.6179939"
       sodipodi:arg1="1.5707963"
       sodipodi:r2="118.71394"
       sodipodi:r1="237.42789"
       sodipodi:cy="3.2392006"
       sodipodi:cx="266"
       sodipodi:sides="3"
       id="path3334"
       style="fill:#f5ca00;fill-opacity:1;fill-rule:nonzero;stroke:#000000;stroke-width:57.56384277;stroke-linecap:butt;stroke-linejoin:miter;stroke-miterlimit:4;stroke-opacity:1;stroke-dasharray:none;stroke-dashoffset:0"
       sodipodi:type="star" />
    <flowRoot
       style="font-size:40px;font-style:normal;font-variant:normal;font-weight:normal;font-stretch:normal;line-height:125%;letter-spacing:0px;word-spacing:0px;fill:#000000;fill-opacity:1;stroke:none;font-family:Purisa;-inkscape-font-specification:Purisa"
       id="flowRoot3336"
       xml:space="preserve"
       transform="matrix(0.11943471,0,0,0.11943471,317.25349,733.18515)"><flowRegion
         id="flowRegion3338"><rect
           y="115.21932"
           x="-1611.4286"
           height="780"
           width="2291.4285"
           id="rect3340" /></flowRegion><flowPara
         id="flowPara3342" /></flowRoot>    <g
       transform="matrix(0.11943471,0,0,0.11943471,328.00261,752.11922)"
       style="font-size:1152px;font-style:normal;font-variant:normal;font-weight:normal;font-stretch:normal;line-height:125%;letter-spacing:0px;word-spacing:0px;fill:#000000;fill-opacity:1;stroke:none;font-family:Purisa;-inkscape-font-specification:Purisa"
       id="flowRoot3344">
      <path
         d="m -1963.3652,703.45702 0,-527.97852 -4.834,32.76367 -178.8574,495.21485 -36.5235,0 -180.4687,-495.21485 -4.2969,-32.76367 0,527.97852 -69.2871,0 0,-770.214847 35.9863,0 233.6426,631.640627 2.1484,28.46679 2.1485,-28.46679 233.1054,-631.640627 36.5235,0 0,770.214847 -69.2871,0"
         style="font-size:1100px;font-family:Abel;-inkscape-font-specification:Abel"
         id="path3539" />
      <path
         d="m -1717.9063,703.45702 0,-770.214847 433.4473,0 0,66.06445266 -364.1601,0 0,286.27929434 294.873,0 0,66.06446 -294.873,0 0,285.74218 364.1601,0 0,66.06446 -433.4473,0"
         style="font-size:1100px;font-family:Abel;-inkscape-font-specification:Abel"
         id="path3541" />
      <path
         d="m -965.95312,-0.69337434 0,704.15039434 -69.28708,0 0,-704.15039434 -183.6914,0 0,-66.06445266 436.66988,0 0,66.06445266 -183.6914,0"
         style="font-size:1100px;font-family:Abel;-inkscape-font-specification:Abel"
         id="path3543" />
      <path
         d="m -414.87891,524.06249 -243.84765,0 -50.48828,179.39453 -71.97266,0 225.58594,-770.214847 36.52344,0 226.66015,770.214847 -71.43555,0 -51.02539,-179.39453 m -225.04882,-66.06446 206.78711,0 -101.51368,-355.02929 -2.14843,-28.466802 -2.14844,28.466802 -100.97656,355.02929"
         style="font-size:1100px;font-family:Abel;-inkscape-font-specification:Abel"
         id="path3545" />
      <path
         d="m 281.75195,703.45702 0,-527.97852 -4.83398,32.76367 -178.857423,495.21485 -36.523438,0 -180.468749,-495.21485 -4.29688,-32.76367 0,527.97852 -69.2871,0 0,-770.214847 35.98632,0 233.642581,631.640627 2.148438,28.46679 2.148437,-28.46679 233.105464,-631.640627 36.52344,0 0,770.214847 -69.28711,0"
         style="font-size:1100px;font-family:Abel;-inkscape-font-specification:Abel"
         id="path3547" />
      <path
         d="m 527.21094,703.45702 0,-770.214847 433.44726,0 0,66.06445266 -364.16015,0 0,286.27929434 294.87304,0 0,66.06446 -294.87304,0 0,285.74218 364.16015,0 0,66.06446 -433.44726,0"
         style="font-size:1100px;font-family:Abel;-inkscape-font-specification:Abel"
         id="path3549" />
      <path
         d="m 1514.418,525.1367 c -5e-4,26.13948 -5.3716,50.66745 -16.1133,73.58399 -10.3846,22.91675 -24.5285,42.96881 -42.4317,60.15625 -17.546,17.18753 -38.1351,30.79428 -61.7675,40.82031 -23.2751,9.66796 -47.9821,14.50194 -74.1211,14.50195 l -55.3223,0 c -26.1395,-10e-6 -51.0256,-4.83399 -74.6582,-14.50195 -23.2749,-10.02603 -43.8641,-23.63278 -61.7676,-40.82031 -17.5457,-17.18744 -31.6895,-37.2395 -42.4316,-60.15625 -10.3842,-22.91654 -15.5763,-47.44451 -15.5762,-73.58399 l 0,-30.61523 69.2871,-11.2793 0,41.89453 c -10e-5,17.18766 3.4016,33.30093 10.2051,48.33985 7.1613,14.6811 16.6502,27.75075 28.4668,39.20898 11.8162,11.10034 25.423,19.87312 40.8203,26.31836 15.755,6.44537 32.2263,9.66802 49.4141,9.66797 l 48.3398,0 c 17.1872,5e-5 33.4795,-3.2226 48.877,-9.66797 15.3967,-6.44524 29.0035,-15.21802 40.8203,-26.31836 11.816,-11.45823 21.1259,-24.52788 27.9297,-39.20898 7.161,-15.03892 10.7417,-31.15219 10.7422,-48.33985 l 0,-23.0957 c -5e-4,-26.49717 -5.1925,-48.51863 -15.5762,-66.06445 -10.3845,-17.54529 -24.1703,-32.4053 -41.3574,-44.58008 -17.1879,-12.53223 -36.7029,-23.09537 -58.545,-31.68945 -21.4846,-8.5934 -43.6851,-17.18714 -66.6015,-25.78125 -22.9169,-8.59338 -45.2965,-18.0823 -67.1387,-28.4668 -21.4845,-10.38371 -40.8205,-23.27432 -58.0078,-38.67188 -17.1876,-15.75475 -30.9734,-34.91163 -41.3574,-57.4707 -10.3842,-22.55808 -15.5763,-50.3087 -15.5762,-83.25195 l 0,-14.50195 c -10e-5,-26.13871 4.8339,-50.66668 14.502,-73.583989 10.0259,-22.915979 23.6327,-42.9680419 40.8203,-60.15625 17.1873,-17.186758 37.2394,-30.614478 60.1562,-40.283203 23.2745,-10.025266 47.9815,-15.038282 74.1211,-15.039063 l 49.4141,0 c 26.139,7.81e-4 50.6669,5.013797 73.584,15.039063 22.9162,9.668725 42.9683,23.096445 60.1562,40.283203 17.187,17.1882081 30.6148,37.240271 40.2832,60.15625 10.0256,22.917309 15.0386,47.445279 15.0391,73.583989 l 0,19.87304 -69.2871,11.2793 0,-31.15234 c -5e-4,-17.186896 -3.2231,-33.121125 -9.668,-47.802739 -6.4457,-15.038408 -15.2185,-28.108056 -26.3184,-39.208985 -11.1006,-11.09957 -24.1703,-19.8723478 -39.2089,-26.3183591 -14.6814,-6.4446008 -30.6156,-9.6672539 -47.8028,-9.6679689 l -42.9687,0 c -17.1878,7.15e-4 -33.301,3.2233681 -48.3399,9.6679689 -14.6812,6.4460113 -27.7508,15.2187891 -39.209,26.3183591 -11.1004,11.100929 -19.8732,24.170577 -26.3183,39.208985 -6.4455,14.681614 -9.6681,30.615843 -9.668,47.802739 l 0,14.50195 c -10e-5,24.70758 5.1919,45.47579 15.5762,62.30469 10.3839,16.82992 24.1697,31.33186 41.3574,43.50586 17.1873,11.81686 36.5232,22.20097 58.0078,31.15234 21.8422,8.59418 44.2217,17.54599 67.1387,26.85547 22.9163,8.95223 45.1168,18.97826 66.6016,30.07812 21.842,10.74256 41.3569,24.17028 58.5449,40.28321 17.187,15.75553 30.9728,35.09145 41.3574,58.00781 10.3836,22.91693 15.5757,50.84659 15.5762,83.78906 l 0,23.0957"
         style="font-size:1100px;font-family:Abel;-inkscape-font-specification:Abel"
         id="path3551" />
      <path
         d="m 2027.8945,703.45702 0,-351.80664 -294.873,0 0,351.80664 -69.2871,0 0,-770.214847 69.2871,0 0,352.343747 294.873,0 0,-352.343747 69.2871,0 0,770.214847 -69.2871,0"
         style="font-size:1100px;font-family:Abel;-inkscape-font-specification:Abel"
         id="path3553" />
    </g>
    <path
       sodipodi:type="star"
       style="fill:#f5ca00;fill-opacity:1;fill-rule:nonzero;stroke:#000000;stroke-width:57.56384277;stroke-linecap:butt;stroke-linejoin:miter;stroke-miterlimit:4;stroke-opacity:1;stroke-dasharray:none;stroke-dashoffset:0"
       id="path3381"
       sodipodi:sides="3"
       sodipodi:cx="266"
       sodipodi:cy="3.2392006"
       sodipodi:r1="237.42789"
       sodipodi:r2="118.71394"
       sodipodi:arg1="1.5707963"
       sodipodi:arg2="2.6179939"
       inkscape:flatsided="false"
       inkscape:rounded="0"
       inkscape:randomized="0"
       d="M 266.00001,240.66709 163.19071,62.59617 60.381415,-115.47474 l 205.618585,0 205.61858,-1e-5 -102.80929,178.070925 z"
       transform="matrix(0.10374109,0,0,0.10374109,61.212264,887.29034)"
       inkscape:transform-center-y="51.557518" />
    <path
       sodipodi:type="star"
       style="fill:#f5ca00;fill-opacity:1;fill-rule:nonzero;stroke:#000000;stroke-width:57.56384277;stroke-linecap:butt;stroke-linejoin:miter;stroke-miterlimit:4;stroke-opacity:1;stroke-dasharray:none;stroke-dashoffset:0"
       id="path3383"
       sodipodi:sides="3"
       sodipodi:cx="266"
       sodipodi:cy="3.2392006"
       sodipodi:r1="237.42789"
       sodipodi:r2="118.71394"
       sodipodi:arg1="1.5707963"
       sodipodi:arg2="2.6179939"
       inkscape:flatsided="false"
       inkscape:rounded="0"
       inkscape:randomized="0"
       d="M 266.00001,240.66709 163.19071,62.59617 60.381415,-115.47474 l 205.618585,0 205.61858,-1e-5 -102.80929,178.070925 z"
       transform="matrix(0.10374109,0,0,0.10374109,30.340436,935.72599)"
       inkscape:transform-center-y="51.557518" />
    <path
       sodipodi:type="star"
       style="fill:#f5ca00;fill-opacity:1;fill-rule:nonzero;stroke:#000000;stroke-width:57.56384277;stroke-linecap:butt;stroke-linejoin:miter;stroke-miterlimit:4;stroke-opacity:1;stroke-dasharray:none;stroke-dashoffset:0"
       id="path3385"
       sodipodi:sides="3"
       sodipodi:cx="266"
       sodipodi:cy="3.2392006"
       sodipodi:r1="237.42789"
       sodipodi:r2="118.71394"
       sodipodi:arg1="1.5707963"
       sodipodi:arg2="2.6179939"
       inkscape:flatsided="false"
       inkscape:rounded="0"
       inkscape:randomized="0"
       d="M 266.00001,240.66709 163.19071,62.59617 60.381415,-115.47474 l 205.618585,0 205.61858,-1e-5 -102.80929,178.070925 z"
       transform="matrix(0.10374109,0,0,0.10374109,92.327051,935.72599)"
       inkscape:transform-center-y="51.557518" />
    <path
       sodipodi:type="star"
       style="fill:#f5ca00;fill-opacity:1;fill-rule:nonzero;stroke:#000000;stroke-width:57.56384277;stroke-linecap:butt;stroke-linejoin:miter;stroke-miterlimit:4;stroke-opacity:1;stroke-dasharray:none;stroke-dashoffset:0"
       id="path3387"
       sodipodi:sides="3"
       sodipodi:cx="266"
       sodipodi:cy="3.2392006"
       sodipodi:r1="237.42789"
       sodipodi:r2="118.71394"
       sodipodi:arg1="1.5707963"
       sodipodi:arg2="2.6179939"
       inkscape:flatsided="false"
       inkscape:rounded="0"
       inkscape:randomized="0"
       d="M 266.00001,240.66709 163.19071,62.59617 60.381415,-115.47474 l 205.618585,0 205.61858,-1e-5 -102.80929,178.070925 z"
       transform="matrix(0.05187054,-0.08984242,0.08984242,0.05187054,105.8336,926.60298)"
       inkscape:transform-center-y="-51.55751"
       inkscape:transform-center-x="-1.3837462e-05" />
    <path
       inkscape:transform-center-x="-1.3837462e-05"
       inkscape:transform-center-y="-51.55751"
       transform="matrix(0.05187054,-0.08984242,0.08984242,0.05187054,43.846982,926.60298)"
       d="M 266.00001,240.66709 163.19071,62.59617 60.381415,-115.47474 l 205.618585,0 205.61858,-1e-5 -102.80929,178.070925 z"
       inkscape:randomized="0"
       inkscape:rounded="0"
       inkscape:flatsided="false"
       sodipodi:arg2="2.6179939"
       sodipodi:arg1="1.5707963"
       sodipodi:r2="118.71394"
       sodipodi:r1="237.42789"
       sodipodi:cy="3.2392006"
       sodipodi:cx="266"
       sodipodi:sides="3"
       id="path3389"
       style="fill:#f5ca00;fill-opacity:1;fill-rule:nonzero;stroke:#000000;stroke-width:57.56384277;stroke-linecap:butt;stroke-linejoin:miter;stroke-miterlimit:4;stroke-opacity:1;stroke-dasharray:none;stroke-dashoffset:0"
       sodipodi:type="star" />
    <path
       sodipodi:type="star"
       style="fill:#f5ca00;fill-opacity:1;fill-rule:nonzero;stroke:#000000;stroke-width:57.56384277;stroke-linecap:butt;stroke-linejoin:miter;stroke-miterlimit:4;stroke-opacity:1;stroke-dasharray:none;stroke-dashoffset:0"
       id="path3391"
       sodipodi:sides="3"
       sodipodi:cx="266"
       sodipodi:cy="3.2392006"
       sodipodi:r1="237.42789"
       sodipodi:r2="118.71394"
       sodipodi:arg1="1.5707963"
       sodipodi:arg2="2.6179939"
       inkscape:flatsided="false"
       inkscape:rounded="0"
       inkscape:randomized="0"
       d="M 266.00001,240.66709 163.19071,62.59617 60.381415,-115.47474 l 205.618585,0 205.61858,-1e-5 -102.80929,178.070925 z"
       transform="matrix(0.05187054,-0.08984242,0.08984242,0.05187054,74.857771,975.09347)"
       inkscape:transform-center-y="-51.55751"
       inkscape:transform-center-x="-1.3837462e-05" />
    <g
       transform="matrix(0.11943471,0,0,0.11943471,448.75657,881.4729)"
       style="font-size:1152px;font-style:normal;font-variant:normal;font-weight:normal;font-stretch:normal;line-height:125%;letter-spacing:0px;word-spacing:0px;fill:#000000;fill-opacity:1;stroke:none;font-family:Purisa;-inkscape-font-specification:Purisa"
       id="flowRoot3393">
      <path
         d="m -1963.3652,703.45702 0,-527.97852 -4.834,32.76367 -178.8574,495.21485 -36.5235,0 -180.4687,-495.21485 -4.2969,-32.76367 0,527.97852 -69.2871,0 0,-770.214847 35.9863,0 233.6426,631.640627 2.1484,28.46679 2.1485,-28.46679 233.1054,-631.640627 36.5235,0 0,770.214847 -69.2871,0"
         style="font-size:1100px;font-family:Abel;-inkscape-font-specification:Abel"
         id="path3522" />
      <path
         d="m -1717.9063,703.45702 0,-770.214847 433.4473,0 0,66.06445266 -364.1601,0 0,286.27929434 294.873,0 0,66.06446 -294.873,0 0,285.74218 364.1601,0 0,66.06446 -433.4473,0"
         style="font-size:1100px;font-family:Abel;-inkscape-font-specification:Abel"
         id="path3524" />
      <path
         d="m -965.95312,-0.69337434 0,704.15039434 -69.28708,0 0,-704.15039434 -183.6914,0 0,-66.06445266 436.66988,0 0,66.06445266 -183.6914,0"
         style="font-size:1100px;font-family:Abel;-inkscape-font-specification:Abel"
         id="path3526" />
      <path
         d="m -414.87891,524.06249 -243.84765,0 -50.48828,179.39453 -71.97266,0 225.58594,-770.214847 36.52344,0 226.66015,770.214847 -71.43555,0 -51.02539,-179.39453 m -225.04882,-66.06446 206.78711,0 -101.51368,-355.02929 -2.14843,-28.466802 -2.14844,28.466802 -100.97656,355.02929"
         style="font-size:1100px;font-family:Abel;-inkscape-font-specification:Abel"
         id="path3528" />
      <path
         d="m 281.75195,703.45702 0,-527.97852 -4.83398,32.76367 -178.857423,495.21485 -36.523438,0 -180.468749,-495.21485 -4.29688,-32.76367 0,527.97852 -69.2871,0 0,-770.214847 35.98632,0 233.642581,631.640627 2.148438,28.46679 2.148437,-28.46679 233.105464,-631.640627 36.52344,0 0,770.214847 -69.28711,0"
         style="font-size:1100px;font-family:Abel;-inkscape-font-specification:Abel"
         id="path3530" />
      <path
         d="m 527.21094,703.45702 0,-770.214847 433.44726,0 0,66.06445266 -364.16015,0 0,286.27929434 294.87304,0 0,66.06446 -294.87304,0 0,285.74218 364.16015,0 0,66.06446 -433.44726,0"
         style="font-size:1100px;font-family:Abel;-inkscape-font-specification:Abel"
         id="path3532" />
      <path
         d="m 1514.418,525.1367 c -5e-4,26.13948 -5.3716,50.66745 -16.1133,73.58399 -10.3846,22.91675 -24.5285,42.96881 -42.4317,60.15625 -17.546,17.18753 -38.1351,30.79428 -61.7675,40.82031 -23.2751,9.66796 -47.9821,14.50194 -74.1211,14.50195 l -55.3223,0 c -26.1395,-10e-6 -51.0256,-4.83399 -74.6582,-14.50195 -23.2749,-10.02603 -43.8641,-23.63278 -61.7676,-40.82031 -17.5457,-17.18744 -31.6895,-37.2395 -42.4316,-60.15625 -10.3842,-22.91654 -15.5763,-47.44451 -15.5762,-73.58399 l 0,-30.61523 69.2871,-11.2793 0,41.89453 c -10e-5,17.18766 3.4016,33.30093 10.2051,48.33985 7.1613,14.6811 16.6502,27.75075 28.4668,39.20898 11.8162,11.10034 25.423,19.87312 40.8203,26.31836 15.755,6.44537 32.2263,9.66802 49.4141,9.66797 l 48.3398,0 c 17.1872,5e-5 33.4795,-3.2226 48.877,-9.66797 15.3967,-6.44524 29.0035,-15.21802 40.8203,-26.31836 11.816,-11.45823 21.1259,-24.52788 27.9297,-39.20898 7.161,-15.03892 10.7417,-31.15219 10.7422,-48.33985 l 0,-23.0957 c -5e-4,-26.49717 -5.1925,-48.51863 -15.5762,-66.06445 -10.3845,-17.54529 -24.1703,-32.4053 -41.3574,-44.58008 -17.1879,-12.53223 -36.7029,-23.09537 -58.545,-31.68945 -21.4846,-8.5934 -43.6851,-17.18714 -66.6015,-25.78125 -22.9169,-8.59338 -45.2965,-18.0823 -67.1387,-28.4668 -21.4845,-10.38371 -40.8205,-23.27432 -58.0078,-38.67188 -17.1876,-15.75475 -30.9734,-34.91163 -41.3574,-57.4707 -10.3842,-22.55808 -15.5763,-50.3087 -15.5762,-83.25195 l 0,-14.50195 c -10e-5,-26.13871 4.8339,-50.66668 14.502,-73.583989 10.0259,-22.915979 23.6327,-42.9680419 40.8203,-60.15625 17.1873,-17.186758 37.2394,-30.614478 60.1562,-40.283203 23.2745,-10.025266 47.9815,-15.038282 74.1211,-15.039063 l 49.4141,0 c 26.139,7.81e-4 50.6669,5.013797 73.584,15.039063 22.9162,9.668725 42.9683,23.096445 60.1562,40.283203 17.187,17.1882081 30.6148,37.240271 40.2832,60.15625 10.0256,22.917309 15.0386,47.445279 15.0391,73.583989 l 0,19.87304 -69.2871,11.2793 0,-31.15234 c -5e-4,-17.186896 -3.2231,-33.121125 -9.668,-47.802739 -6.4457,-15.038408 -15.2185,-28.108056 -26.3184,-39.208985 -11.1006,-11.09957 -24.1703,-19.8723478 -39.2089,-26.3183591 -14.6814,-6.4446008 -30.6156,-9.6672539 -47.8028,-9.6679689 l -42.9687,0 c -17.1878,7.15e-4 -33.301,3.2233681 -48.3399,9.6679689 -14.6812,6.4460113 -27.7508,15.2187891 -39.209,26.3183591 -11.1004,11.100929 -19.8732,24.170577 -26.3183,39.208985 -6.4455,14.681614 -9.6681,30.615843 -9.668,47.802739 l 0,14.50195 c -10e-5,24.70758 5.1919,45.47579 15.5762,62.30469 10.3839,16.82992 24.1697,31.33186 41.3574,43.50586 17.1873,11.81686 36.5232,22.20097 58.0078,31.15234 21.8422,8.59418 44.2217,17.54599 67.1387,26.85547 22.9163,8.95223 45.1168,18.97826 66.6016,30.07812 21.842,10.74256 41.3569,24.17028 58.5449,40.28321 17.187,15.75553 30.9728,35.09145 41.3574,58.00781 10.3836,22.91693 15.5757,50.84659 15.5762,83.78906 l 0,23.0957"
         style="font-size:1100px;font-family:Abel;-inkscape-font-specification:Abel"
         id="path3534" />
      <path
         d="m 2027.8945,703.45702 0,-351.80664 -294.873,0 0,351.80664 -69.2871,0 0,-770.214847 69.2871,0 0,352.343747 294.873,0 0,-352.343747 69.2871,0 0,770.214847 -69.2871,0"
         style="font-size:1100px;font-family:Abel;-inkscape-font-specification:Abel"
         id="path3536" />
    </g>
  </g>
</svg>
